<svg width="29" height="29" viewBox="0 0 29 29" fill="none" xmlns="http://www.w3.org/2000/svg">
<path d="M14.5 26.5833C14.5 26.5833 23.5625 19.3333 23.5625 11.4791C23.5625 6.47403 19.5051 2.41663 14.5 2.41663C9.4949 2.41663 5.4375 6.47403 5.4375 11.4791C5.4375 19.3333 14.5 26.5833 14.5 26.5833Z" fill="#FB4F31"/>
<path fill-rule="evenodd" clip-rule="evenodd" d="M4.53125 11.4791C4.53125 5.97352 8.99439 1.51038 14.5 1.51038C20.0056 1.51038 24.4688 5.97352 24.4688 11.4791C24.4688 15.7274 22.0358 19.7098 19.7352 22.5473C18.571 23.9832 17.4089 25.1643 16.5383 25.9866C16.1024 26.3983 15.7381 26.7214 15.4811 26.9429C15.3525 27.0537 15.2507 27.1391 15.1801 27.1977C15.1448 27.2269 15.1173 27.2495 15.0981 27.2651L15.0757 27.2833L15.0692 27.2885L15.0673 27.29L15.0666 27.2906C15.0663 27.2908 15.0661 27.291 14.5 26.5833C13.9339 27.291 13.9337 27.2908 13.9334 27.2906L13.9327 27.29L13.9308 27.2885L13.9243 27.2833L13.9019 27.2651C13.8827 27.2495 13.8552 27.2269 13.8199 27.1977C13.7493 27.1391 13.6475 27.0537 13.5189 26.9429C13.2619 26.7214 12.8976 26.3983 12.4617 25.9866C11.5911 25.1643 10.429 23.9832 9.26482 22.5473C6.96419 19.7098 4.53125 15.7274 4.53125 11.4791ZM14.5 26.5833L13.9339 27.291C14.2648 27.5557 14.7352 27.5557 15.0661 27.291L14.5 26.5833ZM14.5 25.3937C14.716 25.2035 14.9854 24.9601 15.2938 24.6689C16.1223 23.8864 17.2259 22.7642 18.3273 21.4058C20.5579 18.6547 22.6563 15.085 22.6563 11.4791C22.6563 6.97454 19.0046 3.32288 14.5 3.32288C9.99541 3.32288 6.34375 6.97454 6.34375 11.4791C6.34375 15.085 8.44206 18.6547 10.6727 21.4058C11.7741 22.7642 12.8777 23.8864 13.7062 24.6689C14.0146 24.9601 14.284 25.2035 14.5 25.3937Z" fill="#FB4F31"/>
<path d="M14.5 15.1041C16.502 15.1041 18.125 13.4812 18.125 11.4791C18.125 9.4771 16.502 7.85413 14.5 7.85413C12.498 7.85413 10.875 9.4771 10.875 11.4791C10.875 13.4812 12.498 15.1041 14.5 15.1041Z" fill="white"/>
<path fill-rule="evenodd" clip-rule="evenodd" d="M9.96875 11.4791C9.96875 8.97659 11.9975 6.94788 14.5 6.94788C17.0025 6.94788 19.0313 8.97659 19.0313 11.4791C19.0313 13.9817 17.0025 16.0104 14.5 16.0104C11.9975 16.0104 9.96875 13.9817 9.96875 11.4791ZM14.5 8.76038C12.9985 8.76038 11.7813 9.97761 11.7813 11.4791C11.7813 12.9806 12.9985 14.1979 14.5 14.1979C16.0015 14.1979 17.2188 12.9806 17.2188 11.4791C17.2188 9.97761 16.0015 8.76038 14.5 8.76038Z" fill="white"/>
</svg>
