<svg width="29" height="29" viewBox="0 0 29 29" fill="none" xmlns="http://www.w3.org/2000/svg">
<path fill-rule="evenodd" clip-rule="evenodd" d="M16.6049 3.25624C17.6591 3.0991 18.7385 3.15058 19.7767 3.41092L19.7767 3.41092C21.1492 3.75509 22.4492 4.46423 23.5209 5.53597L22.9294 6.1275L23.5209 5.53597C24.5927 6.60771 25.3019 7.90767 25.646 9.2803C25.9064 10.3185 25.9578 11.3978 25.8007 12.452C25.7326 12.9089 25.3069 13.2242 24.8499 13.156C24.393 13.0879 24.0778 12.6623 24.1459 12.2053C24.2707 11.368 24.2297 10.5109 24.0232 9.68722L24.0232 9.68719C23.7506 8.60018 23.1896 7.57076 22.3379 6.71902C21.4861 5.86729 20.4567 5.30632 19.3697 5.03375C18.546 4.82721 17.6888 4.78623 16.8516 4.91103C16.3946 4.97915 15.969 4.66393 15.9009 4.20697C15.8327 3.75001 16.148 3.32436 16.6049 3.25624Z" fill="#FB4F31"/>
<path fill-rule="evenodd" clip-rule="evenodd" d="M16.8117 7.24799C18.0758 7.05956 19.4133 7.45197 20.3886 8.42718L20.3886 8.4272C21.3639 9.40246 21.7562 10.7401 21.5678 12.0041C21.4997 12.4611 21.074 12.7763 20.6171 12.7082C20.1601 12.6401 19.8449 12.2144 19.913 11.7575C20.0266 10.9953 19.7901 10.1947 19.2056 9.61026C19.2056 9.61026 19.2056 9.61025 19.2056 9.61024M19.2056 9.61024C18.621 9.02571 17.8205 8.78917 17.0584 8.90278C16.6014 8.9709 16.1758 8.65568 16.1076 8.19872C16.0395 7.74176 16.3547 7.31611 16.8117 7.24799" fill="#FB4F31"/>
<path d="M9.69027 5.74097C10.0954 5.74097 10.4688 5.96074 10.6654 6.31498L12.0298 8.77262C12.2084 9.09441 12.2168 9.48362 12.0522 9.81283L10.7378 12.4416C10.7378 12.4416 11.1187 14.3999 12.7128 15.994C14.307 17.5881 16.2587 17.9624 16.2587 17.9624L18.8871 16.6483C19.2165 16.4836 19.606 16.4921 19.9279 16.6711L22.3925 18.0413C22.7465 18.2381 22.9659 18.6112 22.9659 19.0161V21.8456C22.9659 23.2865 21.6275 24.3272 20.2622 23.8665C17.4582 22.9204 13.1056 21.1189 10.3468 18.3601C7.58794 15.6013 5.78648 11.2487 4.84035 8.44464C4.37968 7.07936 5.42038 5.74097 6.86126 5.74097H9.69027Z" fill="#FB4F31"/>
<path fill-rule="evenodd" clip-rule="evenodd" d="M6.86135 6.5775C5.94342 6.5775 5.37084 7.40002 5.63306 8.17719C6.57329 10.9637 8.32539 15.1556 10.9384 17.7685L10.9384 17.7686C13.5513 20.3815 17.7432 22.1336 20.5297 23.0739L20.5298 23.0739C21.3069 23.3361 22.1295 22.7636 22.1295 21.8456V19.0161C22.1295 18.9149 22.0746 18.8216 21.9861 18.7725L21.9861 18.7724L19.5215 17.4022C19.441 17.3574 19.3436 17.3553 19.2613 17.3965L19.2612 17.3965L16.6329 18.7107C16.4685 18.7928 16.2817 18.8186 16.1012 18.784L16.2588 17.9624C16.1012 18.784 16.101 18.7839 16.1007 18.7839L16.1001 18.7838L16.0988 18.7835L16.0957 18.7829L16.0873 18.7812L16.062 18.776C16.0416 18.7716 16.0138 18.7655 15.9794 18.7573C15.9106 18.7411 15.8149 18.7168 15.697 18.6828C15.4614 18.6148 15.135 18.5072 14.7557 18.3456C14.0004 18.0237 13.0144 17.4785 12.1214 16.5855L12.1214 16.5855C11.2286 15.6927 10.6818 14.7053 10.3584 13.9488C10.196 13.5689 10.0877 13.2419 10.0191 13.006C9.98471 12.8878 9.96018 12.792 9.94373 12.7231C9.93551 12.6886 9.92929 12.6609 9.92487 12.6404L9.91956 12.6152L9.91786 12.6068L9.91724 12.6037L9.91699 12.6024L9.91687 12.6018C9.91682 12.6015 9.91677 12.6013 10.7379 12.4416L9.91677 12.6013C9.88154 12.4202 9.90718 12.2325 9.9897 12.0674L11.3041 9.43871L11.3041 9.43866C11.3452 9.35641 11.3431 9.25911 11.2985 9.17862L9.93417 6.72107C9.88495 6.63241 9.79156 6.5775 9.69035 6.5775H6.86135ZM11.6252 12.5375C11.6254 12.538 11.6255 12.5385 11.6256 12.5389C11.6783 12.72 11.7648 12.9822 11.8968 13.2912C12.1624 13.9124 12.6032 14.7012 13.3044 15.4025C13.3044 15.4025 13.3045 15.4025 13.3045 15.4025M13.3045 15.4025C14.0056 16.1036 14.7926 16.5426 15.4116 16.8064C15.7195 16.9376 15.9807 17.0233 16.1609 17.0753C16.1612 17.0754 16.1616 17.0755 16.1619 17.0756L18.513 15.9001C18.513 15.9001 18.513 15.9001 18.513 15.9001C19.0896 15.6118 19.7712 15.6267 20.3344 15.9399L19.9563 16.62L20.3345 15.9399L22.799 17.3101C23.4185 17.6545 23.8025 18.3075 23.8025 19.0161V21.8456C23.8025 23.8094 21.9483 25.3183 19.9949 24.6591C17.1733 23.7071 12.66 21.8563 9.75534 18.9516C6.85064 16.0469 4.99983 11.5336 4.0478 8.71208L4.78628 8.46291L4.0478 8.71208C3.38868 6.75867 4.89751 4.90442 6.86135 4.90442H9.69035C10.3995 4.90442 11.0527 5.28904 11.3969 5.90888L11.3969 5.90895L12.7613 8.36658L12.7613 8.3666C13.0738 8.92967 13.0886 9.61078 12.8005 10.1869C12.8005 10.1869 12.8005 10.187 12.8005 10.187L11.6252 12.5375" fill="#FB4F31"/>
</svg>
