<svg width="26" height="25" viewBox="0 0 26 25" fill="none" xmlns="http://www.w3.org/2000/svg">
<path d="M0.868408 24.6358L2.5833 18.4085C1.52308 16.5807 0.966898 14.5107 0.972692 12.3946C0.972692 5.76366 6.39545 0.372437 13.0522 0.372437C16.285 0.372437 19.3208 1.62366 21.5977 3.89547C23.8804 6.16728 25.1376 9.18867 25.1318 12.4003C25.1318 19.0313 19.709 24.4225 13.0464 24.4225H13.0406C11.0187 24.4225 9.03151 23.9151 7.26448 22.9579L0.868408 24.6358ZM7.57154 20.7841L7.93653 21.0032C9.47762 21.9143 11.2446 22.3928 13.0464 22.3986H13.0522C18.5851 22.3986 23.0924 17.9184 23.0924 12.4061C23.0924 9.73644 22.0496 7.22823 20.1551 5.33698C18.2606 3.44572 15.7346 2.40784 13.0522 2.40784C7.5194 2.40207 3.01202 6.88227 3.01202 12.3946C3.01202 14.2801 3.53923 16.1194 4.54731 17.7108L4.78484 18.0914L3.77097 21.7759L7.57154 20.7841Z" fill="white"/>
<path d="M1.29126 24.2149L2.94821 18.2009C1.92276 16.4423 1.38396 14.4415 1.38396 12.4003C1.38975 6.00005 6.62132 0.793335 13.0522 0.793335C16.1749 0.793335 19.1006 2.0042 21.3022 4.19528C23.5037 6.38637 24.7146 9.30397 24.7146 12.4061C24.7146 18.8064 19.4772 24.0131 13.0522 24.0131H13.0464C11.0939 24.0131 9.17627 23.523 7.47297 22.6004L1.29126 24.2149Z" fill="#FB4F31"/>
<path d="M0.868408 24.6358L2.5833 18.4085C1.52308 16.5807 0.966898 14.5107 0.972692 12.3946C0.972692 5.76366 6.39545 0.372437 13.0522 0.372437C16.285 0.372437 19.3208 1.62366 21.5977 3.89547C23.8804 6.16728 25.1376 9.18867 25.1318 12.4003C25.1318 19.0313 19.709 24.4225 13.0464 24.4225H13.0406C11.0187 24.4225 9.03151 23.9151 7.26448 22.9579L0.868408 24.6358ZM7.57154 20.7841L7.93653 21.0032C9.47762 21.9143 11.2446 22.3928 13.0464 22.3986H13.0522C18.5851 22.3986 23.0924 17.9184 23.0924 12.4061C23.0924 9.73644 22.0496 7.22823 20.1551 5.33698C18.2606 3.44572 15.7346 2.40784 13.0522 2.40784C7.5194 2.40207 3.01202 6.88227 3.01202 12.3946C3.01202 14.2801 3.53923 16.1194 4.54731 17.7108L4.78484 18.0914L3.77097 21.7759L7.57154 20.7841Z" fill="white"/>
<path fill-rule="evenodd" clip-rule="evenodd" d="M10.0337 7.36663C9.80773 6.86498 9.57019 6.85345 9.35583 6.84769C9.18202 6.84192 8.97925 6.84192 8.77648 6.84192C8.5737 6.84192 8.24926 6.91688 7.97117 7.21671C7.69308 7.51654 6.91675 8.24306 6.91675 9.72493C6.91675 11.201 8.00014 12.631 8.15077 12.8328C8.30141 13.0346 10.2422 16.1656 13.307 17.3707C15.8562 18.3739 16.3776 18.1721 16.928 18.1202C17.4784 18.0683 18.7124 17.3937 18.9673 16.6903C19.2164 15.9868 19.2164 15.3872 19.1411 15.2603C19.0658 15.1334 18.863 15.0585 18.5618 14.9086C18.2605 14.7587 16.7774 14.0321 16.4993 13.9284C16.2212 13.8303 16.0184 13.7784 15.8214 14.0783C15.6187 14.3781 15.0393 15.0527 14.8655 15.2545C14.6917 15.4563 14.5121 15.4794 14.2108 15.3295C13.9096 15.1796 12.9362 14.8624 11.7833 13.8361C10.8853 13.0404 10.277 12.0544 10.1032 11.7546C9.92939 11.4547 10.0858 11.2933 10.2364 11.1434C10.3697 11.0107 10.5377 10.7916 10.6883 10.6187C10.839 10.4457 10.8911 10.3188 10.9896 10.117C11.0881 9.91521 11.0418 9.74222 10.9664 9.59231C10.8911 9.44816 10.3002 7.96053 10.0337 7.36663Z" fill="white"/>
</svg>
