<svg width="28" height="23" viewBox="0 0 28 23" fill="none" xmlns="http://www.w3.org/2000/svg">
<path fill-rule="evenodd" clip-rule="evenodd" d="M1.86642 9.68609C9.15443 6.51083 14.0142 4.4175 16.4459 3.4061C23.3886 0.518371 24.8313 0.0167407 25.7716 0.000176611C25.9784 -0.00346649 26.4408 0.0477869 26.7403 0.290835C26.9932 0.49606 27.0628 0.773289 27.0961 0.967865C27.1294 1.16244 27.1709 1.60569 27.1379 1.95203C26.7617 5.90512 25.1338 15.4982 24.3056 19.9257C23.9551 21.7992 23.2651 22.4273 22.597 22.4888C21.1452 22.6224 20.0428 21.5294 18.6367 20.6076C16.4364 19.1653 15.1933 18.2674 13.0575 16.86C10.5892 15.2334 12.1893 14.3394 13.596 12.8784C13.9641 12.4961 20.3608 6.67782 20.4846 6.15001C20.5001 6.084 20.5144 5.83794 20.3682 5.70801C20.2221 5.57809 20.0063 5.62252 19.8506 5.65785C19.6299 5.70794 16.1149 8.03126 9.30548 12.6278C8.30775 13.3129 7.40403 13.6467 6.59433 13.6292C5.7017 13.61 3.98464 13.1245 2.70818 12.7096C1.14255 12.2007 -0.101776 11.9316 0.00657734 11.0673C0.0630144 10.6171 0.682962 10.1567 1.86642 9.68609Z" fill="white"/>
</svg>
