<svg width="29" height="17" viewBox="0 0 29 17" fill="none" xmlns="http://www.w3.org/2000/svg">
<path fill-rule="evenodd" clip-rule="evenodd" d="M4.16115 0.00240044H1.06242C0.17707 0.00240044 0 0.427369 0 0.887751C0 1.70227 1.06242 5.77489 4.88714 11.1578C7.45465 14.8232 11.0669 16.8241 14.3427 16.8241C16.3082 16.8241 16.5561 16.3814 16.5561 15.62V12.84C16.5561 11.9546 16.7331 11.7776 17.3706 11.7776C17.831 11.7776 18.6101 12.0078 20.4516 13.7785C22.5587 15.8856 22.8952 16.8241 24.0815 16.8241H27.1803C28.0656 16.8241 28.5083 16.3814 28.2427 15.5137C27.9771 14.6284 26.9678 13.3889 25.6398 11.8838C24.9315 11.0162 23.8336 10.1131 23.5149 9.65272C23.0545 9.05068 23.1608 8.78508 23.5149 8.27157C23.5149 8.27157 27.2865 2.95947 27.6761 1.13565C27.8708 0.48049 27.6761 0.00240044 26.7376 0.00240044H23.6389C23.3491 -0.0149288 23.0614 0.061923 22.8189 0.221485C22.5764 0.381048 22.3919 0.614764 22.2931 0.887751C22.2931 0.887751 20.6995 4.71246 18.4861 7.20915C17.7601 7.93514 17.4237 8.16533 17.0341 8.16533C16.8571 8.16533 16.5561 7.93514 16.5561 7.27998V1.13565C16.5561 0.356541 16.3259 0.00240044 15.6707 0.00240044H10.8013C10.3055 0.00240044 10.0045 0.356541 10.0045 0.710681C10.0045 1.45438 11.1377 1.63145 11.244 3.72087V8.28928C11.244 9.29858 11.0669 9.47565 10.6773 9.47565C9.61491 9.47565 7.0651 5.61552 5.5423 1.20648C5.25898 0.356541 4.95796 0.00240044 4.16115 0.00240044V0.00240044Z" fill="white"/>
</svg>
