<svg width="31" height="31" viewBox="0 0 31 31" fill="none" xmlns="http://www.w3.org/2000/svg">
<path d="M0 30.3292L2.14361 22.5451C0.818338 20.2603 0.123113 17.6728 0.130355 15.0277C0.130355 6.73903 6.9088 0 15.2298 0C19.2708 0 23.0656 1.56403 25.9116 4.40379C28.765 7.24356 30.3365 11.0203 30.3292 15.0349C30.3292 23.3235 23.5508 30.0626 15.2225 30.0626H15.2153C12.6879 30.0626 10.2039 29.4283 7.99509 28.2319L0 30.3292ZM8.37891 25.5146L8.83516 25.7885C10.7615 26.9273 12.9703 27.5255 15.2225 27.5327H15.2298C22.1458 27.5327 27.78 21.9325 27.78 15.0421C27.78 11.705 26.4765 8.56974 24.1084 6.20567C21.7403 3.84161 18.5828 2.54425 15.2298 2.54425C8.31374 2.53705 2.67951 8.13729 2.67951 15.0277C2.67951 17.3845 3.33853 19.6837 4.59863 21.673L4.89555 22.1487L3.62821 26.7543L8.37891 25.5146Z" fill="white"/>
<path fill-rule="evenodd" clip-rule="evenodd" d="M11.4567 8.7428C11.1743 8.11574 10.8774 8.10133 10.6094 8.09412C10.3921 8.08691 10.1387 8.08691 9.88521 8.08691C9.63174 8.08691 9.22619 8.18061 8.87858 8.5554C8.53097 8.93019 7.56055 9.83834 7.56055 11.6907C7.56055 13.5358 8.91479 15.3233 9.10308 15.5755C9.29137 15.8278 11.7174 19.7415 15.5484 21.2478C18.7348 22.502 19.3866 22.2497 20.0746 22.1848C20.7626 22.12 22.3051 21.2767 22.6238 20.3974C22.9352 19.518 22.9352 18.7685 22.841 18.6099C22.7469 18.4513 22.4934 18.3576 22.1168 18.1702C21.7402 17.9828 19.8863 17.0747 19.5387 16.945C19.1911 16.8224 18.9376 16.7576 18.6914 17.1324C18.4379 17.5071 17.7137 18.3504 17.4965 18.6027C17.2792 18.8549 17.0547 18.8838 16.6781 18.6964C16.3016 18.509 15.0849 18.1126 13.6438 16.8296C12.5213 15.835 11.7609 14.6025 11.5436 14.2277C11.3264 13.8529 11.5219 13.6511 11.7102 13.4637C11.8767 13.298 12.0868 13.0241 12.275 12.8078C12.4633 12.5916 12.5285 12.433 12.6516 12.1808C12.7747 11.9285 12.7168 11.7123 12.6227 11.5249C12.5285 11.3447 11.7898 9.48517 11.4567 8.7428Z" fill="white"/>
</svg>
