<svg width="80" height="80" viewBox="0 0 80 80" fill="none" xmlns="http://www.w3.org/2000/svg">
<circle cx="40" cy="40" r="40" fill="white"/>
<path d="M22.3672 25.0668L40.0083 19.9185L57.6325 25.0668V35.6249C57.6325 46.7222 50.5306 56.5742 40.0024 60.0822C29.4713 56.5743 22.3672 46.7201 22.3672 35.62V25.0668Z" fill="#FB4F31"/>
<path fill-rule="evenodd" clip-rule="evenodd" d="M39.5972 18.5078C39.8662 18.4293 40.152 18.4294 40.4209 18.5079L58.0451 23.6563C58.6718 23.8394 59.1025 24.4139 59.1025 25.0667V35.6248C59.1025 47.3547 51.5959 57.7682 40.4675 61.4762C40.166 61.5766 39.8401 61.5766 39.5387 61.4762C28.4074 57.7684 20.8984 47.3526 20.8984 35.6199V25.0667C20.8984 24.4138 21.3293 23.8391 21.9562 23.6562L39.5972 18.5078ZM23.8372 26.1686V35.6199C23.8372 45.9234 30.3282 55.0885 40.003 58.5281C49.675 55.0885 56.1637 45.9256 56.1637 35.6248V26.1683L40.0087 21.4491L23.8372 26.1686Z" fill="#FB4F31"/>
<path fill-rule="evenodd" clip-rule="evenodd" d="M50.8355 32.5937C51.4093 33.1675 51.4093 34.0979 50.8355 34.6717L39.0804 46.4268C38.5066 47.0007 37.5762 47.0007 37.0024 46.4268L30.1452 39.5697C29.5714 38.9959 29.5714 38.0655 30.1452 37.4917C30.719 36.9178 31.6494 36.9178 32.2232 37.4917L38.0414 43.3098L48.7575 32.5937C49.3313 32.0199 50.2617 32.0199 50.8355 32.5937Z" fill="#FFFBFF"/>
</svg>
