<svg width="80" height="80" viewBox="0 0 80 80" fill="none" xmlns="http://www.w3.org/2000/svg">
<circle cx="40" cy="40" r="40" fill="white"/>
<path d="M55 44.3923C55 43.2877 54.1046 42.3923 53 42.3923C51.8954 42.3923 51 43.2877 51 44.3923H55ZM39.9939 51.4066L37.9939 51.4055V51.4066H39.9939ZM40.0061 29.1429L42.0061 29.144V29.1429H40.0061ZM25 44.3923C25 45.4969 25.8954 46.3923 27 46.3923C28.1046 46.3923 29 45.4969 29 44.3923H25ZM51 44.3923V51.4066H55V44.3923H51ZM51 51.4066C51 53.9696 48.958 56 46.497 56V60C51.219 60 55 56.1264 55 51.4066H51ZM46.497 56C44.0359 56 41.9939 53.9695 41.9939 51.4066H37.9939C37.9939 56.1265 41.7749 60 46.497 60V56ZM41.9939 51.4077L42.0061 29.144L38.0061 29.1418L37.9939 51.4055L41.9939 51.4077ZM42.0061 29.1429C42.0061 24.2742 38.3717 20 33.503 20V24C35.8175 24 38.0061 26.1218 38.0061 29.1429H42.0061ZM33.503 20C28.6344 20 25 24.2742 25 29.1429H29C29 26.1218 31.1886 24 33.503 24V20ZM25 29.1429V44.3923H29V29.1429H25Z" fill="#FB4F31"/>
<path d="M57.5858 48.4142C58.3668 49.1953 59.6332 49.1953 60.4142 48.4142C61.1953 47.6332 61.1953 46.3668 60.4142 45.5858L57.5858 48.4142ZM53 41L54.4142 39.5858C53.6332 38.8047 52.3668 38.8047 51.5858 39.5858L53 41ZM45.5858 45.5858C44.8047 46.3668 44.8047 47.6332 45.5858 48.4142C46.3668 49.1953 47.6332 49.1953 48.4142 48.4142L45.5858 45.5858ZM60.4142 45.5858L54.4142 39.5858L51.5858 42.4142L57.5858 48.4142L60.4142 45.5858ZM51.5858 39.5858L45.5858 45.5858L48.4142 48.4142L54.4142 42.4142L51.5858 39.5858Z" fill="#FB4F31"/>
<path d="M59 26.7273C59 31.1818 53 35 53 35C53 35 47 31.1818 47 26.7273C47 25.2083 47.6321 23.7516 48.7574 22.6775C49.8826 21.6034 51.4087 21 53 21C54.5913 21 56.1174 21.6034 57.2426 22.6775C58.3679 23.7516 59 25.2083 59 26.7273Z" fill="#FB4F31"/>
<path d="M53 35L52.5973 35.6327C52.843 35.7891 53.157 35.7891 53.4027 35.6327L53 35ZM48.7574 22.6775L49.2752 23.22L49.2753 23.22L48.7574 22.6775ZM57.2426 22.6775L56.7247 23.22L56.7248 23.22L57.2426 22.6775ZM58.25 26.7273C58.25 28.6398 56.941 30.5213 55.4677 32.0058C54.7486 32.7302 54.0268 33.3239 53.4836 33.7367C53.2127 33.9427 52.9878 34.1024 52.8321 34.2098C52.7543 34.2634 52.6939 34.3039 52.6538 34.3304C52.6337 34.3437 52.6187 34.3534 52.6092 34.3596C52.6044 34.3627 52.601 34.3649 52.599 34.3662C52.5981 34.3668 52.5974 34.3672 52.5971 34.3674C52.597 34.3675 52.5969 34.3675 52.597 34.3675C52.597 34.3675 52.5971 34.3674 52.5971 34.3674C52.5972 34.3673 52.5973 34.3673 53 35C53.4027 35.6327 53.4028 35.6326 53.4031 35.6325C53.4032 35.6324 53.4034 35.6323 53.4036 35.6322C53.404 35.6319 53.4045 35.6316 53.4051 35.6312C53.4062 35.6305 53.4078 35.6295 53.4096 35.6283C53.4134 35.6258 53.4186 35.6225 53.4252 35.6182C53.4384 35.6097 53.4571 35.5975 53.481 35.5817C53.5288 35.5501 53.5973 35.5042 53.6835 35.4447C53.8559 35.3259 54.0998 35.1525 54.3914 34.9309C54.9732 34.4886 55.7514 33.8493 56.5323 33.0624C58.059 31.5241 59.75 29.2693 59.75 26.7273H58.25ZM53 35C53.4027 34.3673 53.4028 34.3673 53.4029 34.3674C53.4029 34.3674 53.403 34.3675 53.403 34.3675C53.4031 34.3675 53.403 34.3675 53.4029 34.3674C53.4026 34.3672 53.4019 34.3668 53.401 34.3662C53.399 34.3649 53.3956 34.3627 53.3908 34.3596C53.3813 34.3534 53.3663 34.3437 53.3462 34.3304C53.3061 34.3039 53.2457 34.2634 53.1679 34.2098C53.0122 34.1024 52.7873 33.9427 52.5164 33.7367C51.9732 33.3239 51.2514 32.7302 50.5323 32.0058C49.059 30.5213 47.75 28.6398 47.75 26.7273H46.25C46.25 29.2693 47.941 31.5241 49.4677 33.0624C50.2486 33.8493 51.0268 34.4886 51.6086 34.9309C51.9002 35.1525 52.1441 35.3259 52.3165 35.4447C52.4027 35.5042 52.4712 35.5501 52.519 35.5817C52.5429 35.5975 52.5616 35.6097 52.5748 35.6182C52.5814 35.6225 52.5866 35.6258 52.5904 35.6283C52.5922 35.6295 52.5938 35.6305 52.5949 35.6312C52.5955 35.6316 52.596 35.6319 52.5964 35.6322C52.5966 35.6323 52.5968 35.6324 52.5969 35.6325C52.5972 35.6326 52.5973 35.6327 53 35ZM47.75 26.7273C47.75 25.4188 48.2942 24.1564 49.2752 23.22L48.2396 22.1349C46.97 23.3467 46.25 24.9979 46.25 26.7273H47.75ZM49.2753 23.22C50.2574 22.2825 51.5966 21.75 53 21.75V20.25C51.2208 20.25 49.5078 20.9244 48.2395 22.135L49.2753 23.22ZM53 21.75C54.4034 21.75 55.7426 22.2825 56.7247 23.22L57.7605 22.135C56.4922 20.9244 54.7792 20.25 53 20.25V21.75ZM56.7248 23.22C57.7058 24.1564 58.25 25.4188 58.25 26.7273H59.75C59.75 24.9979 59.03 23.3467 57.7604 22.1349L56.7248 23.22Z" fill="#FB4F31"/>
<path d="M33 50.7273C33 55.1818 27 59 27 59C27 59 21 55.1818 21 50.7273C21 49.2083 21.6321 47.7516 22.7574 46.6775C23.8826 45.6034 25.4087 45 27 45C28.5913 45 30.1174 45.6034 31.2426 46.6775C32.3679 47.7516 33 49.2083 33 50.7273Z" fill="#FB4F31"/>
<path d="M27 59L26.5973 59.6327C26.843 59.7891 27.157 59.7891 27.4027 59.6327L27 59ZM31.2426 46.6775L30.7247 47.22L30.7248 47.22L31.2426 46.6775ZM32.25 50.7273C32.25 52.6398 30.941 54.5213 29.4677 56.0058C28.7486 56.7302 28.0268 57.3239 27.4836 57.7367C27.2127 57.9427 26.9878 58.1024 26.8321 58.2098C26.7543 58.2634 26.6939 58.3039 26.6538 58.3304C26.6337 58.3437 26.6187 58.3534 26.6092 58.3596C26.6044 58.3627 26.601 58.3649 26.599 58.3662C26.5981 58.3668 26.5974 58.3672 26.5971 58.3674C26.597 58.3675 26.5969 58.3675 26.597 58.3675C26.597 58.3675 26.5971 58.3674 26.5971 58.3674C26.5972 58.3673 26.5973 58.3673 27 59C27.4027 59.6327 27.4028 59.6326 27.4031 59.6325C27.4032 59.6324 27.4034 59.6323 27.4036 59.6322C27.404 59.6319 27.4045 59.6316 27.4051 59.6312C27.4062 59.6305 27.4078 59.6295 27.4096 59.6283C27.4134 59.6258 27.4186 59.6225 27.4252 59.6182C27.4384 59.6097 27.4571 59.5975 27.481 59.5817C27.5288 59.5501 27.5973 59.5042 27.6835 59.4447C27.8559 59.3259 28.0998 59.1525 28.3914 58.9309C28.9732 58.4886 29.7514 57.8493 30.5323 57.0624C32.059 55.5241 33.75 53.2693 33.75 50.7273H32.25ZM27 59C27.4027 58.3673 27.4028 58.3673 27.4029 58.3674C27.4029 58.3674 27.403 58.3675 27.403 58.3675C27.4031 58.3675 27.403 58.3675 27.4029 58.3674C27.4026 58.3672 27.4019 58.3668 27.401 58.3662C27.399 58.3649 27.3956 58.3627 27.3908 58.3596C27.3813 58.3534 27.3663 58.3437 27.3462 58.3304C27.3061 58.3039 27.2457 58.2634 27.1679 58.2098C27.0122 58.1024 26.7873 57.9427 26.5164 57.7367C25.9732 57.3239 25.2514 56.7302 24.5323 56.0058C23.059 54.5213 21.75 52.6398 21.75 50.7273H20.25C20.25 53.2693 21.941 55.5241 23.4677 57.0624C24.2486 57.8493 25.0268 58.4886 25.6086 58.9309C25.9002 59.1525 26.1441 59.3259 26.3165 59.4447C26.4027 59.5042 26.4712 59.5501 26.519 59.5817C26.5429 59.5975 26.5616 59.6097 26.5748 59.6182C26.5814 59.6225 26.5866 59.6258 26.5904 59.6283C26.5922 59.6295 26.5938 59.6305 26.5949 59.6312C26.5955 59.6316 26.596 59.6319 26.5964 59.6322C26.5966 59.6323 26.5968 59.6324 26.5969 59.6325C26.5972 59.6326 26.5973 59.6327 27 59ZM21.75 50.7273C21.75 49.4188 22.2942 48.1564 23.2752 47.22L22.2395 46.135C20.9701 47.3468 20.25 48.9978 20.25 50.7273H21.75ZM23.2752 47.22C24.2574 46.2825 25.5966 45.75 27 45.75V44.25C25.2208 44.25 23.5078 44.9243 22.2395 46.135L23.2752 47.22ZM27 45.75C28.4034 45.75 29.7426 46.2825 30.7247 47.22L31.7605 46.135C30.4922 44.9243 28.7792 44.25 27 44.25V45.75ZM30.7248 47.22C31.7058 48.1564 32.25 49.4188 32.25 50.7273H33.75C33.75 48.9978 33.03 47.3468 31.7604 46.135L30.7248 47.22Z" fill="#FB4F31"/>
<path d="M53 29C54.1046 29 55 28.1046 55 27C55 25.8954 54.1046 25 53 25C51.8954 25 51 25.8954 51 27C51 28.1046 51.8954 29 53 29Z" fill="#FFFBFF"/>
<path d="M27 53C28.1046 53 29 52.1046 29 51C29 49.8954 28.1046 49 27 49C25.8954 49 25 49.8954 25 51C25 52.1046 25.8954 53 27 53Z" fill="#FFFBFF"/>
</svg>
