<svg width="29" height="29" viewBox="0 0 29 29" fill="none" xmlns="http://www.w3.org/2000/svg">
<path d="M2.41675 23.5625H26.5834V14.5V5.4375H14.5001H2.41675V14.5V23.5625Z" fill="#FB4F31"/>
<path fill-rule="evenodd" clip-rule="evenodd" d="M1.5105 5.4375C1.5105 4.93699 1.91624 4.53125 2.41675 4.53125H26.5834C27.0839 4.53125 27.4897 4.93699 27.4897 5.4375V23.5625C27.4897 24.063 27.0839 24.4688 26.5834 24.4688H2.41675C1.91624 24.4688 1.5105 24.063 1.5105 23.5625V5.4375ZM3.323 6.34375V22.6563H25.6772V6.34375H3.323Z" fill="#FB4F31"/>
<path fill-rule="evenodd" clip-rule="evenodd" d="M1.69156 4.8938C1.99186 4.4934 2.5599 4.41225 2.96031 4.71255L14.4999 13.3672L26.0395 4.71255C26.4399 4.41225 27.0079 4.4934 27.3082 4.8938C27.6085 5.29421 27.5274 5.86225 27.127 6.16255L15.0436 15.2251C14.7214 15.4667 14.2784 15.4667 13.9561 15.2251L1.87281 6.16255C1.4724 5.86225 1.39125 5.29421 1.69156 4.8938Z" fill="white"/>
<path fill-rule="evenodd" clip-rule="evenodd" d="M1.5105 5.4375C1.5105 4.93699 1.91624 4.53125 2.41675 4.53125H14.5001C15.0006 4.53125 15.4063 4.93699 15.4063 5.4375C15.4063 5.93801 15.0006 6.34375 14.5001 6.34375H3.323V14.5C3.323 15.0005 2.91726 15.4063 2.41675 15.4063C1.91624 15.4063 1.5105 15.0005 1.5105 14.5V5.4375Z" fill="#FB4F31"/>
<path fill-rule="evenodd" clip-rule="evenodd" d="M13.5938 5.4375C13.5938 4.93699 13.9995 4.53125 14.5 4.53125H26.5833C27.0838 4.53125 27.4896 4.93699 27.4896 5.4375V14.5C27.4896 15.0005 27.0838 15.4063 26.5833 15.4063C26.0828 15.4063 25.6771 15.0005 25.6771 14.5V6.34375H14.5C13.9995 6.34375 13.5938 5.93801 13.5938 5.4375Z" fill="#FB4F31"/>
</svg>
