<svg width="23" height="19" viewBox="0 0 23 19" fill="none" xmlns="http://www.w3.org/2000/svg">
<path fill-rule="evenodd" clip-rule="evenodd" d="M2.05344 7.78891C7.88385 5.2487 11.7717 3.57404 13.717 2.76492C19.2712 0.454736 20.4253 0.0534317 21.1776 0.0401804C21.343 0.0372659 21.7129 0.0782686 21.9526 0.272707C22.1549 0.436887 22.2106 0.658671 22.2372 0.814331C22.2639 0.969992 22.297 1.32459 22.2707 1.60166C21.9697 4.76413 20.6673 12.4386 20.0047 15.9806C19.7244 17.4794 19.1724 17.9819 18.6379 18.0311C17.4765 18.138 16.5946 17.2635 15.4696 16.5261C13.7094 15.3723 12.7149 14.654 11.0063 13.528C9.03168 12.2268 10.3118 11.5116 11.4371 10.3428C11.7316 10.0369 16.8489 5.38229 16.948 4.96005C16.9603 4.90724 16.9718 4.71039 16.8549 4.60645C16.738 4.50251 16.5654 4.53805 16.4408 4.56632C16.2643 4.60639 13.4522 6.46504 8.00469 10.1423C7.2065 10.6904 6.48353 10.9574 5.83577 10.9434C5.12166 10.928 3.74801 10.5397 2.72685 10.2077C1.47435 9.80058 0.478882 9.58533 0.565565 8.89388C0.610714 8.53373 1.10667 8.16541 2.05344 7.78891Z" fill="white"/>
</svg>
