<svg width="24" height="15" viewBox="0 0 24 15" fill="none" xmlns="http://www.w3.org/2000/svg">
<path fill-rule="evenodd" clip-rule="evenodd" d="M4.12579 0.602384H1.64681C0.938531 0.602384 0.796875 0.942359 0.796875 1.31066C0.796875 1.96228 1.64681 5.22037 4.70658 9.52672C6.7606 12.459 9.65038 14.0597 12.271 14.0597C13.8434 14.0597 14.0417 13.7056 14.0417 13.0965V10.8725C14.0417 10.1642 14.1834 10.0225 14.6933 10.0225C15.0616 10.0225 15.6849 10.2067 17.1582 11.6232C18.8439 13.3089 19.113 14.0597 20.0621 14.0597H22.5411C23.2494 14.0597 23.6035 13.7056 23.391 13.0115C23.1785 12.3032 22.3711 11.3116 21.3087 10.1075C20.7421 9.41339 19.8638 8.69095 19.6088 8.32264C19.2405 7.84101 19.3255 7.62853 19.6088 7.21772C19.6088 7.21772 22.6261 2.96804 22.9377 1.50898C23.0935 0.984856 22.9377 0.602384 22.1869 0.602384H19.708C19.4761 0.588521 19.246 0.650002 19.052 0.777652C18.858 0.905302 18.7104 1.09228 18.6314 1.31066C18.6314 1.31066 17.3565 4.37044 15.5858 6.36779C15.005 6.94858 14.7358 7.13273 14.4242 7.13273C14.2825 7.13273 14.0417 6.94858 14.0417 6.42445V1.50898C14.0417 0.885697 13.8576 0.602384 13.3334 0.602384H9.4379C9.04126 0.602384 8.80044 0.885697 8.80044 1.16901C8.80044 1.76396 9.70704 1.90562 9.79204 3.57716V7.23189C9.79204 8.03933 9.65038 8.18099 9.33874 8.18099C8.4888 8.18099 6.44895 5.09288 5.23071 1.56565C5.00406 0.885697 4.76325 0.602384 4.12579 0.602384V0.602384Z" fill="white"/>
</svg>
