<svg width="100" height="100" viewBox="0 0 100 100" fill="none" xmlns="http://www.w3.org/2000/svg">
<circle cx="50" cy="50" r="50" fill="white"/>
<path d="M68.25 55.4904C68.25 54.3858 67.3546 53.4904 66.25 53.4904C65.1454 53.4904 64.25 54.3858 64.25 55.4904H68.25ZM49.9924 64.2583L47.9924 64.2572V64.2583H49.9924ZM50.0076 36.4286L52.0076 36.4297V36.4286H50.0076ZM31.75 55.4904C31.75 56.5949 32.6454 57.4904 33.75 57.4904C34.8546 57.4904 35.75 56.5949 35.75 55.4904H31.75ZM64.25 55.4904V64.2583H68.25V55.4904H64.25ZM64.25 64.2583C64.25 67.7316 61.4801 70.5 58.1213 70.5V74.5C63.7411 74.5 68.25 69.8884 68.25 64.2583H64.25ZM58.1213 70.5C54.7622 70.5 51.9924 67.7315 51.9924 64.2583H47.9924C47.9924 69.8885 52.5013 74.5 58.1213 74.5V70.5ZM51.9924 64.2593L52.0076 36.4297L48.0076 36.4275L47.9924 64.2572L51.9924 64.2593ZM52.0076 36.4286C52.0076 30.5737 47.6453 25.5 41.8787 25.5V29.5C45.0912 29.5 48.0076 32.4213 48.0076 36.4286H52.0076ZM41.8787 25.5C36.1123 25.5 31.75 30.5737 31.75 36.4286H35.75C35.75 32.4212 38.6665 29.5 41.8787 29.5V25.5ZM31.75 36.4286V55.4904H35.75V36.4286H31.75Z" fill="#FB4F31"/>
<path d="M72.3358 60.1642C73.1168 60.9453 74.3832 60.9453 75.1642 60.1642C75.9453 59.3832 75.9453 58.1168 75.1642 57.3358L72.3358 60.1642ZM66.25 51.25L67.6642 49.8358C66.8832 49.0547 65.6168 49.0547 64.8358 49.8358L66.25 51.25ZM57.3358 57.3358C56.5547 58.1168 56.5547 59.3832 57.3358 60.1642C58.1168 60.9453 59.3832 60.9453 60.1642 60.1642L57.3358 57.3358ZM75.1642 57.3358L67.6642 49.8358L64.8358 52.6642L72.3358 60.1642L75.1642 57.3358ZM64.8358 49.8358L57.3358 57.3358L60.1642 60.1642L67.6642 52.6642L64.8358 49.8358Z" fill="#FB4F31"/>
<path d="M73.75 33.4091C73.75 38.9773 66.25 43.75 66.25 43.75C66.25 43.75 58.75 38.9773 58.75 33.4091C58.75 31.5104 59.5401 29.6894 60.9468 28.3469C62.3533 27.0043 64.2609 26.25 66.25 26.25C68.2391 26.25 70.1467 27.0043 71.5532 28.3469C72.9599 29.6894 73.75 31.5104 73.75 33.4091Z" fill="#FB4F31"/>
<path d="M66.25 43.75L65.8473 44.3827C66.093 44.5391 66.407 44.5391 66.6527 44.3827L66.25 43.75ZM60.9468 28.3469L61.4646 28.8894L61.4646 28.8894L60.9468 28.3469ZM71.5532 28.3469L71.0354 28.8894L71.0354 28.8894L71.5532 28.3469ZM73 33.4091C73 35.8784 71.316 38.277 69.4677 40.1393C68.5611 41.0527 67.6518 41.8004 66.968 42.3202C66.6268 42.5796 66.3433 42.7809 66.1466 42.9166C66.0483 42.9843 65.9717 43.0356 65.9206 43.0694C65.8951 43.0863 65.8759 43.0988 65.8635 43.1068C65.8573 43.1108 65.8528 43.1137 65.8501 43.1155C65.8488 43.1163 65.8479 43.1169 65.8474 43.1172C65.8472 43.1174 65.847 43.1174 65.847 43.1175C65.847 43.1175 65.8471 43.1174 65.8471 43.1174C65.8472 43.1173 65.8473 43.1173 66.25 43.75C66.6527 44.3827 66.6529 44.3826 66.6531 44.3825C66.6532 44.3824 66.6534 44.3823 66.6537 44.3821C66.6541 44.3818 66.6547 44.3815 66.6553 44.381C66.6567 44.3802 66.6585 44.379 66.6607 44.3776C66.6652 44.3747 66.6715 44.3706 66.6795 44.3654C66.6955 44.3551 66.7185 44.3401 66.7478 44.3207C66.8066 44.2818 66.8912 44.2251 66.998 44.1515C67.2114 44.0044 67.5139 43.7894 67.8757 43.5143C68.5982 42.9652 69.5639 42.1717 70.5323 41.1959C72.434 39.2798 74.5 36.508 74.5 33.4091H73ZM66.25 43.75C66.6527 43.1173 66.6528 43.1173 66.6529 43.1174C66.6529 43.1174 66.653 43.1175 66.653 43.1175C66.653 43.1174 66.6528 43.1174 66.6526 43.1172C66.6521 43.1169 66.6512 43.1163 66.6499 43.1155C66.6472 43.1137 66.6427 43.1108 66.6365 43.1068C66.6241 43.0988 66.6049 43.0863 66.5794 43.0694C66.5283 43.0356 66.4517 42.9843 66.3534 42.9166C66.1567 42.7809 65.8732 42.5796 65.532 42.3202C64.8482 41.8004 63.9389 41.0527 63.0323 40.1393C61.184 38.277 59.5 35.8784 59.5 33.4091H58C58 36.508 60.066 39.2798 61.9677 41.1959C62.9361 42.1717 63.9018 42.9652 64.6243 43.5143C64.9861 43.7894 65.2886 44.0044 65.502 44.1515C65.6088 44.2251 65.6934 44.2818 65.7522 44.3207C65.7815 44.3401 65.8045 44.3551 65.8205 44.3654C65.8285 44.3706 65.8348 44.3747 65.8393 44.3776C65.8415 44.379 65.8433 44.3802 65.8447 44.381C65.8453 44.3815 65.8459 44.3818 65.8463 44.3821C65.8466 44.3823 65.8468 44.3824 65.8469 44.3825C65.8471 44.3826 65.8473 44.3827 66.25 43.75ZM59.5 33.4091C59.5 31.7208 60.2022 30.0943 61.4646 28.8894L60.4289 27.8043C58.878 29.2846 58 31.2999 58 33.4091H59.5ZM61.4646 28.8894C62.7281 27.6833 64.4488 27 66.25 27V25.5C64.0729 25.5 61.9784 26.3252 60.4289 27.8043L61.4646 28.8894ZM66.25 27C68.0512 27 69.7719 27.6833 71.0354 28.8894L72.0711 27.8043C70.5216 26.3252 68.4271 25.5 66.25 25.5V27ZM71.0354 28.8894C72.2978 30.0943 73 31.7208 73 33.4091H74.5C74.5 31.2999 73.622 29.2846 72.0711 27.8043L71.0354 28.8894Z" fill="#FB4F31"/>
<path d="M41.25 63.4091C41.25 68.9772 33.75 73.75 33.75 73.75C33.75 73.75 26.25 68.9772 26.25 63.4091C26.25 61.5104 27.0402 59.6895 28.4467 58.3469C29.8532 57.0042 31.7609 56.25 33.75 56.25C35.7391 56.25 37.6468 57.0042 39.0533 58.3469C40.4599 59.6895 41.25 61.5104 41.25 63.4091Z" fill="#FB4F31"/>
<path d="M33.75 73.75L33.3473 74.3827C33.593 74.5391 33.907 74.5391 34.1527 74.3827L33.75 73.75ZM39.0533 58.3469L38.5354 58.8894L38.5354 58.8894L39.0533 58.3469ZM40.5 63.4091C40.5 65.8784 38.816 68.277 36.9677 70.1393C36.0611 71.0527 35.1518 71.8004 34.468 72.3202C34.1268 72.5796 33.8433 72.7809 33.6466 72.9166C33.5483 72.9843 33.4717 73.0356 33.4206 73.0694C33.3951 73.0863 33.3759 73.0988 33.3635 73.1068C33.3573 73.1108 33.3528 73.1137 33.3501 73.1155C33.3488 73.1163 33.3479 73.1169 33.3474 73.1172C33.3472 73.1174 33.347 73.1174 33.347 73.1175C33.347 73.1175 33.3471 73.1174 33.3471 73.1174C33.3472 73.1173 33.3473 73.1173 33.75 73.75C34.1527 74.3827 34.1529 74.3826 34.1531 74.3825C34.1532 74.3824 34.1534 74.3823 34.1537 74.3821C34.1541 74.3818 34.1547 74.3815 34.1553 74.381C34.1567 74.3802 34.1585 74.379 34.1607 74.3776C34.1652 74.3747 34.1715 74.3706 34.1795 74.3654C34.1955 74.3551 34.2185 74.3401 34.2478 74.3207C34.3066 74.2818 34.3912 74.2251 34.498 74.1515C34.7114 74.0044 35.0139 73.7894 35.3757 73.5143C36.0982 72.9652 37.0639 72.1717 38.0323 71.1959C39.934 69.2798 42 66.508 42 63.4091H40.5ZM33.75 73.75C34.1527 73.1173 34.1528 73.1173 34.1529 73.1174C34.1529 73.1174 34.153 73.1175 34.153 73.1175C34.153 73.1174 34.1528 73.1174 34.1526 73.1172C34.1521 73.1169 34.1512 73.1163 34.1499 73.1155C34.1472 73.1137 34.1427 73.1108 34.1365 73.1068C34.1241 73.0988 34.1049 73.0863 34.0794 73.0694C34.0283 73.0356 33.9517 72.9843 33.8534 72.9166C33.6567 72.7809 33.3732 72.5796 33.032 72.3202C32.3482 71.8004 31.4389 71.0527 30.5323 70.1393C28.684 68.277 27 65.8784 27 63.4091H25.5C25.5 66.508 27.566 69.2798 29.4677 71.1959C30.4361 72.1717 31.4018 72.9652 32.1243 73.5143C32.4861 73.7894 32.7886 74.0044 33.002 74.1515C33.1088 74.2251 33.1934 74.2818 33.2522 74.3207C33.2815 74.3401 33.3045 74.3551 33.3205 74.3654C33.3285 74.3706 33.3348 74.3747 33.3393 74.3776C33.3415 74.379 33.3433 74.3802 33.3447 74.381C33.3453 74.3815 33.3459 74.3818 33.3463 74.3821C33.3466 74.3823 33.3468 74.3824 33.3469 74.3825C33.3471 74.3826 33.3473 74.3827 33.75 73.75ZM27 63.4091C27 61.7208 27.7023 60.0943 28.9646 58.8894L27.9288 57.8044C26.3781 59.2847 25.5 61.2999 25.5 63.4091H27ZM28.9646 58.8894C30.228 57.6833 31.9488 57 33.75 57V55.5C31.5729 55.5 29.4784 56.3252 27.9288 57.8044L28.9646 58.8894ZM33.75 57C35.5512 57 37.2719 57.6833 38.5354 58.8894L39.5711 57.8044C38.0216 56.3252 35.9271 55.5 33.75 55.5V57ZM38.5354 58.8894C39.7978 60.0943 40.5 61.7208 40.5 63.4091H42C42 61.2999 41.122 59.2847 39.5711 57.8043L38.5354 58.8894Z" fill="#FB4F31"/>
<path d="M66.25 36.25C67.6307 36.25 68.75 35.1307 68.75 33.75C68.75 32.3693 67.6307 31.25 66.25 31.25C64.8693 31.25 63.75 32.3693 63.75 33.75C63.75 35.1307 64.8693 36.25 66.25 36.25Z" fill="#FFFBFF"/>
<path d="M33.75 66.25C35.1307 66.25 36.25 65.1307 36.25 63.75C36.25 62.3693 35.1307 61.25 33.75 61.25C32.3693 61.25 31.25 62.3693 31.25 63.75C31.25 65.1307 32.3693 66.25 33.75 66.25Z" fill="#FFFBFF"/>
</svg>
