<svg width="80" height="80" viewBox="0 0 80 80" fill="none" xmlns="http://www.w3.org/2000/svg">
<circle cx="40" cy="40" r="40" fill="white"/>
<path d="M21 33H59L54.8 59H25.2L21 33Z" fill="#FB4F31"/>
<path fill-rule="evenodd" clip-rule="evenodd" d="M19.8579 32.0276C20.1429 31.6929 20.5604 31.5 21 31.5H59C59.4396 31.5 59.8571 31.6929 60.1421 32.0276C60.4271 32.3623 60.5509 32.8052 60.4808 33.2392L56.2808 59.2392C56.1634 59.9659 55.5361 60.5 54.8 60.5H25.2C24.4639 60.5 23.8366 59.9659 23.7192 59.2392L19.5192 33.2392C19.4491 32.8052 19.5729 32.3623 19.8579 32.0276ZM22.7618 34.5L26.4771 57.5H53.5229L57.2383 34.5H22.7618Z" fill="#FB4F31"/>
<path fill-rule="evenodd" clip-rule="evenodd" d="M27.5 33C27.5 25.6697 32.9763 19.5 40 19.5C47.0237 19.5 52.5 25.6697 52.5 33C52.5 33.8284 51.8284 34.5 51 34.5C50.1716 34.5 49.5 33.8284 49.5 33C49.5 27.0755 45.1265 22.5 40 22.5C34.8735 22.5 30.5 27.0755 30.5 33C30.5 33.8284 29.8284 34.5 29 34.5C28.1716 34.5 27.5 33.8284 27.5 33Z" fill="#FB4F31"/>
<path d="M33 44C34.1046 44 35 43.1046 35 42C35 40.8954 34.1046 40 33 40C31.8954 40 31 40.8954 31 42C31 43.1046 31.8954 44 33 44Z" fill="#FFFBFF"/>
<path fill-rule="evenodd" clip-rule="evenodd" d="M35.2424 48.1593C34.7809 47.4771 33.8545 47.2944 33.1681 47.752C32.4788 48.2115 32.2926 49.1428 32.7521 49.8321L34.0002 49C32.7521 49.8321 32.7525 49.8327 32.7529 49.8332L32.7537 49.8345L32.7555 49.8372L32.7596 49.8433L32.7703 49.859L32.8012 49.903C32.8259 49.9378 32.8591 49.9833 32.9008 50.038C32.984 50.1473 33.1017 50.2939 33.254 50.4653C33.5577 50.807 34.0055 51.2541 34.6002 51.7C35.7939 52.5954 37.6019 53.5 40.0002 53.5C42.3984 53.5 44.2064 52.5954 45.4002 51.7C45.9948 51.2541 46.4426 50.807 46.7463 50.4653C46.8986 50.2939 47.0163 50.1473 47.0996 50.038C47.1412 49.9833 47.1744 49.9378 47.1992 49.903L47.23 49.859L47.2407 49.8433L47.2448 49.8372L47.2466 49.8345L47.2475 49.8332C47.2479 49.8327 47.2482 49.8321 46.0002 49L47.2482 49.8321C47.7078 49.1428 47.5215 48.2115 46.8322 47.752C46.1458 47.2944 45.2194 47.4771 44.7579 48.1593C44.7584 48.1586 44.7587 48.1582 44.7587 48.1582L44.7586 48.1583L44.7567 48.1611L44.7547 48.164L44.7543 48.1644C44.756 48.1621 44.7572 48.1603 44.7579 48.1593C44.7562 48.1618 44.7545 48.1644 44.7528 48.1669L44.7535 48.1659L44.7543 48.1644C44.7478 48.1736 44.7341 48.1925 44.7133 48.2199C44.6715 48.2747 44.6017 48.3624 44.504 48.4722C44.3077 48.6931 44.0055 48.996 43.6002 49.3C42.7939 49.9047 41.6019 50.5 40.0002 50.5C38.3984 50.5 37.2064 49.9047 36.4002 49.3C35.9948 48.996 35.6926 48.6931 35.4963 48.4722C35.3986 48.3624 35.3288 48.2747 35.2871 48.2199C35.2662 48.1925 35.2525 48.1736 35.246 48.1644C35.2443 48.1621 35.2431 48.1604 35.2424 48.1593" fill="#FFFBFF"/>
<path d="M47 44C48.1046 44 49 43.1046 49 42C49 40.8954 48.1046 40 47 40C45.8954 40 45 40.8954 45 42C45 43.1046 45.8954 44 47 44Z" fill="#FFFBFF"/>
</svg>
