<svg width="100" height="100" viewBox="0 0 100 100" fill="none" xmlns="http://www.w3.org/2000/svg">
<circle cx="50" cy="50" r="50" fill="white"/>
<path d="M27.959 31.3334L50.0103 24.8979L72.0406 31.3334V44.531C72.0406 58.4027 63.1633 70.7176 50.003 75.1026C36.8391 70.7177 27.959 58.4 27.959 44.5249V31.3334Z" fill="#FB4F31"/>
<path fill-rule="evenodd" clip-rule="evenodd" d="M49.4966 23.1348C49.8327 23.0367 50.19 23.0368 50.5261 23.135L72.5564 29.5704C73.3397 29.7993 73.8781 30.5174 73.8781 31.3335V44.5311C73.8781 59.1934 64.4948 72.2103 50.5844 76.8453C50.2076 76.9708 49.8002 76.9708 49.4233 76.8453C35.5092 72.2105 26.123 59.1908 26.123 44.525V31.3335C26.123 30.5173 26.6617 29.799 27.4452 29.5703L49.4966 23.1348ZM29.7965 32.7108V44.525C29.7965 57.4043 37.9102 68.8607 50.0037 73.1602C62.0937 68.8607 70.2047 57.4071 70.2047 44.5311V32.7104L50.0109 26.8114L29.7965 32.7108Z" fill="#FB4F31"/>
<path fill-rule="evenodd" clip-rule="evenodd" d="M63.5434 40.7421C64.2607 41.4594 64.2607 42.6223 63.5434 43.3396L48.8495 58.0335C48.1322 58.7508 46.9693 58.7508 46.252 58.0335L37.6805 49.4621C36.9633 48.7448 36.9633 47.5818 37.6805 46.8645C38.3978 46.1472 39.5608 46.1472 40.2781 46.8645L47.5507 54.1372L60.9459 40.7421C61.6631 40.0248 62.8261 40.0248 63.5434 40.7421Z" fill="#FFFBFF"/>
</svg>
