<svg width="100" height="100" viewBox="0 0 100 100" fill="none" xmlns="http://www.w3.org/2000/svg">
<circle cx="50" cy="50" r="50" fill="white"/>
<path d="M26.25 41.25H73.75L68.5 73.75H31.5L26.25 41.25Z" fill="#FB4F31"/>
<path fill-rule="evenodd" clip-rule="evenodd" d="M24.8224 40.0345C25.1786 39.6161 25.7005 39.375 26.25 39.375H73.75C74.2995 39.375 74.8214 39.6161 75.1776 40.0345C75.5339 40.4529 75.6887 41.0065 75.601 41.549L70.351 74.049C70.2043 74.9573 69.4201 75.625 68.5 75.625H31.5C30.5799 75.625 29.7957 74.9573 29.649 74.049L24.399 41.549C24.3114 41.0065 24.4661 40.4529 24.8224 40.0345ZM28.4522 43.125L33.0964 71.875H66.9036L71.5478 43.125H28.4522Z" fill="#FB4F31"/>
<path fill-rule="evenodd" clip-rule="evenodd" d="M34.375 41.25C34.375 32.0871 41.2204 24.375 50 24.375C58.7796 24.375 65.625 32.0871 65.625 41.25C65.625 42.2855 64.7855 43.125 63.75 43.125C62.7145 43.125 61.875 42.2855 61.875 41.25C61.875 33.8444 56.4081 28.125 50 28.125C43.5919 28.125 38.125 33.8444 38.125 41.25C38.125 42.2855 37.2855 43.125 36.25 43.125C35.2145 43.125 34.375 42.2855 34.375 41.25Z" fill="#FB4F31"/>
<path d="M41.25 55C42.6307 55 43.75 53.8807 43.75 52.5C43.75 51.1193 42.6307 50 41.25 50C39.8693 50 38.75 51.1193 38.75 52.5C38.75 53.8807 39.8693 55 41.25 55Z" fill="#FFFBFF"/>
<path fill-rule="evenodd" clip-rule="evenodd" d="M44.053 60.199C43.4761 59.3463 42.3181 59.1179 41.4601 59.6899C40.5985 60.2643 40.3657 61.4284 40.9401 62.29L42.5002 61.25C40.9401 62.29 40.9406 62.2907 40.9411 62.2915L40.9421 62.293L40.9443 62.2964L40.9496 62.3041L40.9629 62.3237L41.0015 62.3787C41.0324 62.4222 41.0739 62.4791 41.126 62.5474C41.23 62.684 41.3771 62.8673 41.5676 63.0816C41.9472 63.5086 42.5069 64.0675 43.2502 64.625C44.7424 65.7441 47.0024 66.875 50.0002 66.875C52.998 66.875 55.258 65.7441 56.7502 64.625C57.4935 64.0675 58.0532 63.5086 58.4328 63.0816C58.6233 62.8673 58.7704 62.684 58.8744 62.5474C58.9265 62.4791 58.968 62.4222 58.9989 62.3787L59.0375 62.3237L59.0508 62.3041L59.0561 62.2964L59.0583 62.293L59.0593 62.2915C59.0598 62.2907 59.0603 62.29 57.5002 61.25L59.0603 62.29C59.6347 61.4284 59.4019 60.2643 58.5403 59.6899C57.6823 59.1179 56.5243 59.3463 55.9474 60.199C55.948 60.1981 55.9483 60.1977 55.9483 60.1977L55.9483 60.1978L55.9459 60.2013L55.9434 60.2049L55.9429 60.2055C55.945 60.2025 55.9465 60.2003 55.9474 60.1991C55.9452 60.2022 55.9431 60.2054 55.941 60.2085L55.9419 60.2072L55.9429 60.2055C55.9347 60.2169 55.9176 60.2406 55.8916 60.2748C55.8394 60.3433 55.7521 60.4529 55.6301 60.5902C55.3847 60.8663 55.0069 61.2449 54.5002 61.625C53.4924 62.3808 52.0024 63.125 50.0002 63.125C47.998 63.125 46.508 62.3808 45.5002 61.625C44.9935 61.2449 44.6157 60.8663 44.3703 60.5902C44.2483 60.4529 44.161 60.3433 44.1088 60.2748C44.0828 60.2406 44.0657 60.2169 44.0575 60.2055C44.0554 60.2025 44.0539 60.2004 44.053 60.1991" fill="#FFFBFF"/>
<path d="M58.75 55C60.1307 55 61.25 53.8807 61.25 52.5C61.25 51.1193 60.1307 50 58.75 50C57.3693 50 56.25 51.1193 56.25 52.5C56.25 53.8807 57.3693 55 58.75 55Z" fill="#FFFBFF"/>
</svg>
